<svg id="visual" viewBox="0 0 2560 1600" width="2560" height="1600" xmlns="http://www.w3.org/2000/svg" xmlns:xlink="http://www.w3.org/1999/xlink" version="1.1"><g stroke-width="1" stroke-linejoin="bevel"><path d="M1160.8 789L1419.2 829L1428.2 527.3Z" fill="#0c0c0c" stroke="#0c0c0c"></path><path d="M1428.2 527.3L1131.8 510.3L1160.8 789Z" fill="#060606" stroke="#060606"></path><path d="M1102.8 1055.7L1440.2 1046.7L1419.2 829Z" fill="#060606" stroke="#060606"></path><path d="M1706.7 826L1685.7 507.3L1428.2 527.3Z" fill="#171717" stroke="#171717"></path><path d="M1706.7 826L1428.2 527.3L1419.2 829Z" fill="#030303" stroke="#030303"></path><path d="M1428.2 527.3L1174.8 254.7L1131.8 510.3Z" fill="#151515" stroke="#151515"></path><path d="M1440.2 1046.7L1706.7 826L1419.2 829Z" fill="#151515" stroke="#151515"></path><path d="M835.3 814L1102.8 1055.7L1160.8 789Z" fill="#030303" stroke="#030303"></path><path d="M1160.8 789L1102.8 1055.7L1419.2 829Z" fill="#030303" stroke="#030303"></path><path d="M1393.2 237.7L1174.8 254.7L1428.2 527.3Z" fill="#030303" stroke="#030303"></path><path d="M1685.7 507.3L1393.2 237.7L1428.2 527.3Z" fill="#060606" stroke="#060606"></path><path d="M824.3 530.3L835.3 814L1131.8 510.3Z" fill="#060606" stroke="#060606"></path><path d="M1131.8 510.3L835.3 814L1160.8 789Z" fill="#0c0c0c" stroke="#0c0c0c"></path><path d="M823.3 275.7L824.3 530.3L1131.8 510.3Z" fill="#030303" stroke="#030303"></path><path d="M1978.1 508.3L1735.7 300.7L1685.7 507.3Z" fill="#151515" stroke="#151515"></path><path d="M1685.7 507.3L1735.7 300.7L1393.2 237.7Z" fill="#060606" stroke="#060606"></path><path d="M1440.2 1046.7L1733.7 1056.7L1706.7 826Z" fill="#090909" stroke="#090909"></path><path d="M1706.7 826L1963.1 769L1685.7 507.3Z" fill="#030303" stroke="#030303"></path><path d="M1705.7 1330.3L1733.7 1056.7L1440.2 1046.7Z" fill="#101010" stroke="#101010"></path><path d="M584.9 1049.7L825.3 1037.7L835.3 814Z" fill="#101010" stroke="#101010"></path><path d="M835.3 814L825.3 1037.7L1102.8 1055.7Z" fill="#090909" stroke="#090909"></path><path d="M1102.8 0L823.3 275.7L1174.8 254.7Z" fill="#090909" stroke="#090909"></path><path d="M1174.8 254.7L823.3 275.7L1131.8 510.3Z" fill="#0c0c0c" stroke="#0c0c0c"></path><path d="M824.3 530.3L535.9 770L835.3 814Z" fill="#151515" stroke="#151515"></path><path d="M1160.8 1306.3L1440.2 1046.7L1102.8 1055.7Z" fill="#121212" stroke="#121212"></path><path d="M1160.8 1306.3L1423.2 1299.3L1440.2 1046.7Z" fill="#060606" stroke="#060606"></path><path d="M815.3 1325.3L1160.8 1306.3L1102.8 1055.7Z" fill="#0e0e0e" stroke="#0e0e0e"></path><path d="M1951.1 1049.7L1963.1 769L1706.7 826Z" fill="#090909" stroke="#090909"></path><path d="M1963.1 769L1978.1 508.3L1685.7 507.3Z" fill="#0c0c0c" stroke="#0c0c0c"></path><path d="M1688.7 0L1454.2 0L1393.2 237.7Z" fill="#030303" stroke="#030303"></path><path d="M1393.2 237.7L1102.8 0L1174.8 254.7Z" fill="#0c0c0c" stroke="#0c0c0c"></path><path d="M1688.7 0L1393.2 237.7L1735.7 300.7Z" fill="#171717" stroke="#171717"></path><path d="M1454.2 0L1102.8 0L1393.2 237.7Z" fill="#141414" stroke="#141414"></path><path d="M1989.1 1311.3L1951.1 1049.7L1733.7 1056.7Z" fill="#121212" stroke="#121212"></path><path d="M1733.7 1056.7L1951.1 1049.7L1706.7 826Z" fill="#151515" stroke="#151515"></path><path d="M1963.1 769L2267.6 548.3L1978.1 508.3Z" fill="#101010" stroke="#101010"></path><path d="M575.9 250.7L562.9 519.3L823.3 275.7Z" fill="#141414" stroke="#141414"></path><path d="M823.3 275.7L562.9 519.3L824.3 530.3Z" fill="#0e0e0e" stroke="#0e0e0e"></path><path d="M1423.2 1299.3L1705.7 1330.3L1440.2 1046.7Z" fill="#171717" stroke="#171717"></path><path d="M1433.2 1600L1705.7 1330.3L1423.2 1299.3Z" fill="#121212" stroke="#121212"></path><path d="M1978.1 272.7L1688.7 0L1735.7 300.7Z" fill="#090909" stroke="#090909"></path><path d="M1978.1 508.3L1978.1 272.7L1735.7 300.7Z" fill="#000000" stroke="#000000"></path><path d="M562.9 519.3L535.9 770L824.3 530.3Z" fill="#121212" stroke="#121212"></path><path d="M1102.8 0L880.3 0L823.3 275.7Z" fill="#0e0e0e" stroke="#0e0e0e"></path><path d="M535.9 770L584.9 1049.7L835.3 814Z" fill="#0c0c0c" stroke="#0c0c0c"></path><path d="M825.3 1037.7L815.3 1325.3L1102.8 1055.7Z" fill="#0e0e0e" stroke="#0e0e0e"></path><path d="M584.9 1049.7L815.3 1325.3L825.3 1037.7Z" fill="#0c0c0c" stroke="#0c0c0c"></path><path d="M1160.8 1306.3L1433.2 1600L1423.2 1299.3Z" fill="#121212" stroke="#121212"></path><path d="M587.9 0L575.9 250.7L823.3 275.7Z" fill="#0c0c0c" stroke="#0c0c0c"></path><path d="M299.4 525.3L315.4 778L535.9 770Z" fill="#141414" stroke="#141414"></path><path d="M1705.7 1330.3L1989.1 1311.3L1733.7 1056.7Z" fill="#141414" stroke="#141414"></path><path d="M1951.1 1049.7L2241.6 793L1963.1 769Z" fill="#060606" stroke="#060606"></path><path d="M1978.1 508.3L2298.6 278.7L1978.1 272.7Z" fill="#090909" stroke="#090909"></path><path d="M1129.8 1600L1433.2 1600L1160.8 1306.3Z" fill="#060606" stroke="#060606"></path><path d="M1705.7 1330.3L1734.7 1600L1989.1 1311.3Z" fill="#171717" stroke="#171717"></path><path d="M2286.6 1054.7L2241.6 793L1951.1 1049.7Z" fill="#0e0e0e" stroke="#0e0e0e"></path><path d="M815.3 1325.3L1129.8 1600L1160.8 1306.3Z" fill="#151515" stroke="#151515"></path><path d="M584.9 1049.7L607.9 1326.3L815.3 1325.3Z" fill="#171717" stroke="#171717"></path><path d="M815.3 1325.3L829.3 1600L1129.8 1600Z" fill="#101010" stroke="#101010"></path><path d="M311.4 1099.7L607.9 1326.3L584.9 1049.7Z" fill="#141414" stroke="#141414"></path><path d="M2241.6 793L2267.6 548.3L1963.1 769Z" fill="#0e0e0e" stroke="#0e0e0e"></path><path d="M2250.6 0L2014.1 0L1978.1 272.7Z" fill="#121212" stroke="#121212"></path><path d="M1978.1 272.7L2014.1 0L1688.7 0Z" fill="#0c0c0c" stroke="#0c0c0c"></path><path d="M880.3 0L587.9 0L823.3 275.7Z" fill="#101010" stroke="#101010"></path><path d="M299.4 525.3L535.9 770L562.9 519.3Z" fill="#0c0c0c" stroke="#0c0c0c"></path><path d="M299.4 525.3L562.9 519.3L294.4 249.7Z" fill="#060606" stroke="#060606"></path><path d="M535.9 770L315.4 778L584.9 1049.7Z" fill="#171717" stroke="#171717"></path><path d="M1433.2 1600L1734.7 1600L1705.7 1330.3Z" fill="#101010" stroke="#101010"></path><path d="M294.4 249.7L562.9 519.3L575.9 250.7Z" fill="#030303" stroke="#030303"></path><path d="M598.9 1600L829.3 1600L815.3 1325.3Z" fill="#0c0c0c" stroke="#0c0c0c"></path><path d="M2238.6 1311.3L1951.1 1049.7L1989.1 1311.3Z" fill="#060606" stroke="#060606"></path><path d="M2238.6 1311.3L2286.6 1054.7L1951.1 1049.7Z" fill="#060606" stroke="#060606"></path><path d="M2241.6 793L2560 551.3L2267.6 548.3Z" fill="#141414" stroke="#141414"></path><path d="M2267.6 548.3L2298.6 278.7L1978.1 508.3Z" fill="#171717" stroke="#171717"></path><path d="M2560 551.3L2298.6 278.7L2267.6 548.3Z" fill="#171717" stroke="#171717"></path><path d="M246.4 1343.3L311.4 1099.7L0 1084.7Z" fill="#060606" stroke="#060606"></path><path d="M315.4 778L311.4 1099.7L584.9 1049.7Z" fill="#151515" stroke="#151515"></path><path d="M607.9 1326.3L598.9 1600L815.3 1325.3Z" fill="#121212" stroke="#121212"></path><path d="M587.9 0L294.4 249.7L575.9 250.7Z" fill="#171717" stroke="#171717"></path><path d="M2015.1 1600L2238.6 1311.3L1989.1 1311.3Z" fill="#030303" stroke="#030303"></path><path d="M2298.6 278.7L2250.6 0L1978.1 272.7Z" fill="#171717" stroke="#171717"></path><path d="M1734.7 1600L2015.1 1600L1989.1 1311.3Z" fill="#141414" stroke="#141414"></path><path d="M246.4 1343.3L598.9 1600L607.9 1326.3Z" fill="#141414" stroke="#141414"></path><path d="M587.9 0L262.4 0L294.4 249.7Z" fill="#060606" stroke="#060606"></path><path d="M0 498.3L0 814L299.4 525.3Z" fill="#141414" stroke="#141414"></path><path d="M0 814L311.4 1099.7L315.4 778Z" fill="#101010" stroke="#101010"></path><path d="M2560 830L2241.6 793L2286.6 1054.7Z" fill="#090909" stroke="#090909"></path><path d="M2560 830L2560 551.3L2241.6 793Z" fill="#141414" stroke="#141414"></path><path d="M2298.6 278.7L2560 0L2250.6 0Z" fill="#121212" stroke="#121212"></path><path d="M0 814L315.4 778L299.4 525.3Z" fill="#090909" stroke="#090909"></path><path d="M311.4 1099.7L246.4 1343.3L607.9 1326.3Z" fill="#030303" stroke="#030303"></path><path d="M2560 1063.7L2560 830L2286.6 1054.7Z" fill="#151515" stroke="#151515"></path><path d="M2560 1356.3L2286.6 1054.7L2238.6 1311.3Z" fill="#151515" stroke="#151515"></path><path d="M2560 1356.3L2560 1063.7L2286.6 1054.7Z" fill="#121212" stroke="#121212"></path><path d="M2560 551.3L2560 281.7L2298.6 278.7Z" fill="#0c0c0c" stroke="#0c0c0c"></path><path d="M2015.1 1600L2243.6 1600L2238.6 1311.3Z" fill="#121212" stroke="#121212"></path><path d="M0 498.3L299.4 525.3L294.4 249.7Z" fill="#000000" stroke="#000000"></path><path d="M0 262.7L0 498.3L294.4 249.7Z" fill="#000000" stroke="#000000"></path><path d="M0 814L0 1084.7L311.4 1099.7Z" fill="#171717" stroke="#171717"></path><path d="M262.4 0L0 262.7L294.4 249.7Z" fill="#090909" stroke="#090909"></path><path d="M246.4 1343.3L244.4 1600L598.9 1600Z" fill="#0e0e0e" stroke="#0e0e0e"></path><path d="M0 1349.3L244.4 1600L246.4 1343.3Z" fill="#121212" stroke="#121212"></path><path d="M2560 281.7L2560 0L2298.6 278.7Z" fill="#141414" stroke="#141414"></path><path d="M2243.6 1600L2560 1356.3L2238.6 1311.3Z" fill="#090909" stroke="#090909"></path><path d="M0 1084.7L0 1349.3L246.4 1343.3Z" fill="#000000" stroke="#000000"></path><path d="M262.4 0L0 0L0 262.7Z" fill="#000000" stroke="#000000"></path><path d="M2243.6 1600L2560 1600L2560 1356.3Z" fill="#0c0c0c" stroke="#0c0c0c"></path><path d="M0 1349.3L0 1600L244.4 1600Z" fill="#000000" stroke="#000000"></path></g></svg>